<svg width="16" height="16" viewBox="0 0 16 16" fill="none" xmlns="http://www.w3.org/2000/svg">
<path d="M8.16265 2.66663C8.51865 2.66863 9.40931 2.67729 10.356 2.71529L10.692 2.72996C11.6446 2.77463 12.5966 2.85196 13.0693 2.98329C13.6993 3.16063 14.194 3.67663 14.3613 4.33129C14.628 5.37129 14.6613 7.39929 14.6653 7.89063L14.666 7.99196V8.10796C14.6613 8.59929 14.628 10.628 14.3613 11.6673C14.192 12.324 13.6966 12.8406 13.0693 13.0153C12.5966 13.1466 11.6446 13.224 10.692 13.2686L10.356 13.284C9.40931 13.3213 8.51865 13.3306 8.16265 13.332L8.00598 13.3326H7.83598C7.08265 13.328 3.93198 13.294 2.92931 13.0153C2.29998 12.838 1.80465 12.322 1.63731 11.6673C1.37065 10.6273 1.33731 8.59929 1.33331 8.10796V7.89063C1.33731 7.39929 1.37065 5.37063 1.63731 4.33129C1.80665 3.67463 2.30198 3.15796 2.92998 2.98396C3.93198 2.70463 7.08331 2.67063 7.83665 2.66663H8.16265ZM6.66598 5.66663V10.3333L10.666 7.99996L6.66598 5.66663Z" fill="white"/>
</svg>
