<svg width="16" height="16" viewBox="0 0 16 16" fill="none" xmlns="http://www.w3.org/2000/svg">
<g clip-path="url(#clip0_86_23288)">
<path d="M9.98174 2.28805C8.67787 1.98507 7.32189 1.98507 6.01801 2.28805C5.26495 1.82619 4.69001 1.61392 4.27188 1.52432C4.09342 1.48404 3.91081 1.46506 3.72788 1.46779C3.64464 1.47004 3.56179 1.48004 3.48041 1.49765L3.46974 1.49979L3.46548 1.50192H3.46228L3.60841 2.01499L3.46228 1.50299C3.38734 1.52416 3.31795 1.56149 3.25898 1.61235C3.20001 1.66321 3.1529 1.72637 3.12094 1.79739C2.80625 2.50214 2.7463 3.29436 2.95134 4.03845C2.42029 4.68203 2.13089 5.49099 2.13321 6.32539C2.13321 7.98192 2.62174 9.09552 3.45481 9.81125C4.03828 10.3126 4.74654 10.5793 5.45694 10.7318C5.34515 11.0601 5.30301 11.4081 5.33321 11.7537V12.3915C4.89908 12.4822 4.59828 12.4534 4.38388 12.383C4.11614 12.2945 3.91028 12.1163 3.71294 11.8603C3.60979 11.7223 3.51367 11.5792 3.42494 11.4315L3.36414 11.3323C3.28737 11.2047 3.20771 11.0788 3.12521 10.9547C2.92254 10.655 2.62174 10.2795 2.13534 10.1515L1.61908 10.0161L1.34814 11.0486L1.86441 11.1841C1.94974 11.2054 2.06068 11.2854 2.24308 11.5531C2.31328 11.6588 2.38086 11.7662 2.44574 11.8753L2.51828 11.9926C2.61854 12.1547 2.73374 12.3339 2.86708 12.5089C3.13694 12.8609 3.50494 13.2161 4.05108 13.3963C4.42441 13.5201 4.84894 13.5499 5.33321 13.4753V15.4667C5.33321 15.6082 5.3894 15.7438 5.48942 15.8438C5.58944 15.9439 5.7251 16.0001 5.86654 16.0001H10.1332C10.2747 16.0001 10.4103 15.9439 10.5103 15.8438C10.6104 15.7438 10.6665 15.6082 10.6665 15.4667V11.6662C10.6665 11.3302 10.6516 11.0219 10.5567 10.735C11.2639 10.5857 11.9668 10.319 12.5471 9.81765C13.3791 9.09659 13.8665 7.97232 13.8665 6.30619V6.30512C13.8639 5.47756 13.5744 4.67652 13.0473 4.03845C13.2521 3.2947 13.1922 2.50289 12.8777 1.79845C12.846 1.72735 12.7991 1.66406 12.7404 1.61301C12.6816 1.56197 12.6123 1.52442 12.5375 1.50299L12.3913 2.01499C12.5375 1.50299 12.5364 1.50299 12.5353 1.50299L12.5332 1.50192L12.5289 1.49979L12.5193 1.49765C12.493 1.4908 12.4663 1.48546 12.4393 1.48165C12.3835 1.4735 12.3272 1.46887 12.2708 1.46779C12.0879 1.46508 11.9053 1.48406 11.7268 1.52432C11.3097 1.61392 10.7348 1.82619 9.98174 2.28805Z" fill="white"/>
</g>
<defs>
<clipPath id="clip0_86_23288">
<rect width="16" height="16" fill="white"/>
</clipPath>
</defs>
</svg>
